<?xml version="1.0" encoding="UTF-8" standalone="no"?><!DOCTYPE svg PUBLIC "-//W3C//DTD SVG 1.1//EN" "http://www.w3.org/Graphics/SVG/1.1/DTD/svg11.dtd"><svg width="100%" height="100%" viewBox="0 0 347 347" version="1.1" xmlns="http://www.w3.org/2000/svg" xmlns:xlink="http://www.w3.org/1999/xlink" xml:space="preserve" xmlns:serif="http://www.serif.com/" style="fill-rule:evenodd;clip-rule:evenodd;stroke-linejoin:round;stroke-miterlimit:2;"><rect x="0" y="0" width="346.285" height="346.285" style="fill:#ffad00;"/><path d="M47.933,184.213l85.512,-146.786l99.933,172.769l36.947,-0.043c0,0 11.405,0.456 11.457,-9.263l0.025,-127.091l-93.814,-0l-18.485,-36.294l148.7,0.032l0.027,170.495c-0,-0 4.869,39.589 -44.136,39.589l-20.669,-0.118l-0.012,61.355l-119.461,-193.34l-31.67,54.757c-0,0 -8.07,13.94 -29.73,13.94l-24.624,-0.002Z"/><path d="M184.666,210.354c-0,-0 -7.74,14.245 -13.646,25.117c-4.063,7.479 -11.892,12.135 -20.403,12.135c-25.533,-0 -80.252,-0 -110.31,-0c-4.369,-0 -8.416,-2.301 -10.649,-6.057c-2.234,-3.755 -2.324,-8.409 -0.238,-12.249c5.117,-9.418 10.293,-18.946 10.293,-18.946l144.953,-0Z"/></svg>